<svg id="svg" xmlns="http://www.w3.org/2000/svg" xmlns:xlink="http://www.w3.org/1999/xlink" width="400" height="401.7857142857143" viewBox="0, 0, 400,401.7857142857143"><g id="svgg"><path id="path0" d="M150.000 100.000 L 150.000 128.571 158.929 128.571 L 167.857 128.571 167.857 147.321 L 167.857 166.071 154.464 166.071 L 141.071 166.071 141.071 194.643 L 141.071 223.214 148.897 223.214 L 156.723 223.214 145.981 253.125 C 140.073 269.576,134.742 283.600,134.134 284.289 C 133.526 284.979,128.134 271.519,122.151 254.379 L 111.275 223.214 119.030 223.214 L 126.786 223.214 126.786 194.643 L 126.786 166.071 66.964 166.071 L 7.143 166.071 7.143 195.536 L 7.143 225.000 13.867 225.000 L 20.590 225.000 52.484 302.679 L 84.378 380.357 177.010 380.357 L 269.643 380.357 269.643 351.786 L 269.643 323.214 260.714 323.214 L 251.786 323.214 251.786 283.244 L 251.786 243.273 258.934 236.815 C 269.524 227.248,276.336 228.143,281.181 239.737 C 283.488 245.261,283.929 257.052,283.929 313.363 L 283.929 380.413 334.375 379.939 L 384.821 379.464 385.313 351.339 L 385.805 323.214 376.831 323.214 L 367.857 323.214 367.821 271.875 C 367.782 216.386,366.568 202.271,360.811 190.378 C 345.177 158.082,303.583 152.535,265.459 177.661 C 258.738 182.090,252.912 185.714,252.513 185.714 C 252.113 185.714,251.786 160.000,251.786 128.571 L 251.786 71.429 200.893 71.429 L 150.000 71.429 150.000 100.000 " stroke="none" fill="#000000" fill-rule="evenodd"></path></g></svg>