<svg width="21" height="41" viewBox="0 0 21 41" fill="none" xmlns="http://www.w3.org/2000/svg">
<path d="M11.3045 17.9944C6.62181 16.6506 5.11591 15.2611 5.11591 13.0972C5.11591 10.6144 7.19941 8.88333 10.6857 8.88333C14.3576 8.88333 15.7191 10.8194 15.8428 13.6667H20.4018C20.2574 9.74889 18.0914 6.15 13.78 4.98833V0H7.59136V4.92C3.58939 5.87667 0.371316 8.74667 0.371316 13.1428C0.371316 18.4044 4.31139 21.0239 10.0668 22.55C15.224 23.9167 16.2554 25.9211 16.2554 28.0394C16.2554 29.6111 15.2446 32.1167 10.6857 32.1167C6.43615 32.1167 4.76523 30.0211 4.53831 27.3333H0C0.247544 32.3217 3.63065 35.1233 7.59136 36.0572V41H13.78V36.1028C17.8026 35.26 21 32.6861 21 28.0167C21 21.5478 15.9872 19.3383 11.3045 17.9944Z" fill="black"/>
</svg>
